# xmcd
#
# Track frame offsets: 
#        150
#        15314
#        30904
#        48130
#        63548
#        83444
#        97771
#        117135
#        131943
#        146942
#
# Disc length: 2157 seconds
#
# Revision: 0
# Processed by: cddbd v1.5.2PL0 Copyright (c) Steve Scherf et al.
# Submitted via: ExactAudioCopy v1.0b3
#
DISCID=74086b0a
DTITLE=Brett Kissel - Pick Me Up
DYEAR=2015
DGENRE=Country
TTITLE0=Pick Me Up
TTITLE1=Airwaves
TTITLE2=Cool with That
TTITLE3=Feet Back on the Ground
TTITLE4=I Can Play Guitar (feat. Hunter Hayes)
TTITLE5=She's Desire
TTITLE6=Why Won't You
TTITLE7=I Hope It's Me
TTITLE8=That's Why God Made Guitars
TTITLE9=I Didn't Fall In Love with Your Hair (feat. Carolyn Dawn Johns
TTITLE9=on)
EXTD=
EXTT0=
EXTT1=
EXTT2=
EXTT3=
EXTT4=
EXTT5=
EXTT6=
EXTT7=
EXTT8=
EXTT9=
PLAYORDER=
